<svg width="20" height="20" viewBox="0 0 20 20" fill="none" xmlns="http://www.w3.org/2000/svg">
<path fill-rule="evenodd" clip-rule="evenodd" d="M0 9.98963C0 4.48156 4.48156 0 9.98963 0C15.4977 0 19.9793 4.48156 19.9793 9.98963C19.9793 15.4977 15.4977 19.9793 9.98963 19.9793C4.48156 19.9793 0 15.4977 0 9.98963ZM9.18845 13.695L15.5728 7.36076C15.9734 6.96017 15.9734 6.33425 15.5728 5.93366C15.1722 5.53308 14.5463 5.53308 14.1457 5.93366L8.43735 11.642L5.75843 9.18843C5.35784 8.81288 4.73193 8.83792 4.35638 9.23851C4.00586 9.63909 4.0309 10.265 4.43149 10.6406L7.81144 13.7201C8.21202 14.0956 8.8129 14.0706 9.18845 13.695Z" fill="#4A4A4A"/>
</svg>
