<svg width="180" height="180" viewBox="0 0 180 180" fill="none" xmlns="http://www.w3.org/2000/svg">
<g clip-path="url(#clip0_77_3551)">
<path d="M136.707 149.673C130.024 149.088 123.751 146.483 119.163 142.183C116.14 139.351 115.986 134.604 118.819 131.581C121.651 128.558 126.398 128.404 129.421 131.237C132.045 133.696 137.343 135.636 143.263 134.427C147.901 133.479 154.354 130.248 158.762 120.236C160.431 116.445 164.858 114.726 168.649 116.393C172.441 118.062 174.161 122.489 172.492 126.281C167.038 138.671 157.724 146.783 146.266 149.125C143.078 149.776 139.847 149.948 136.707 149.673Z" fill="#F3C74F"/>
<path d="M162.523 107.137C172.038 107.137 179.751 99.4234 179.751 89.9086C179.751 80.3939 172.038 72.6806 162.523 72.6806C153.008 72.6806 145.295 80.3939 145.295 89.9086C145.295 99.4234 153.008 107.137 162.523 107.137Z" fill="#0081C6"/>
<path d="M162.523 97.9516C166.965 97.9516 170.566 94.3506 170.566 89.9086C170.566 85.4665 166.965 81.8655 162.523 81.8655C158.081 81.8655 154.48 85.4665 154.48 89.9086C154.48 94.3506 158.081 97.9516 162.523 97.9516Z" fill="#F3C74F"/>
<path d="M103.759 48.3725C113.273 48.3725 120.987 40.6593 120.987 31.1446C120.987 21.6298 113.273 13.9166 103.759 13.9166C94.244 13.9166 86.5308 21.6298 86.5308 31.1446C86.5308 40.6593 94.244 48.3725 103.759 48.3725Z" fill="#0081C6"/>
<path d="M103.759 39.1876C108.201 39.1876 111.802 35.5866 111.802 31.1446C111.802 26.7025 108.201 23.1015 103.759 23.1015C99.3168 23.1015 95.7158 26.7025 95.7158 31.1446C95.7158 35.5866 99.3168 39.1876 103.759 39.1876Z" fill="#F3C74F"/>
<path opacity="0.2" d="M95.3057 41.735C88.5779 35.0072 88.5779 24.0993 95.3057 17.3714C96.4061 16.271 97.62 15.3541 98.9078 14.6134C96.2247 15.3981 93.6941 16.8476 91.5777 18.9643C84.8502 25.6922 84.8499 36.6001 91.5777 43.328C97.2052 48.9554 105.755 49.8723 112.34 46.086C106.492 47.796 99.9172 46.3465 95.3057 41.735Z" fill="black"/>
<path d="M138.012 132.208C159.088 111.131 171.88 63.1969 151.176 42.4923C130.471 21.7877 82.5364 34.5797 61.4595 55.6566C40.3826 76.7334 40.4336 110.956 61.5727 132.095C82.7118 153.235 116.935 153.285 138.012 132.208Z" fill="#40BAB3"/>
<path d="M55.1054 63.3006C40.6692 84.3314 42.832 113.354 61.5731 132.095C80.3142 150.837 109.337 152.999 130.368 138.563L55.1054 63.3006Z" fill="white"/>
<path d="M46.2995 85.6578C43.8175 102.073 48.9095 119.431 61.5731 132.095C74.2368 144.759 91.5952 149.851 108.011 147.369L46.2995 85.6578Z" fill="#0081C6"/>
<path opacity="0.2" d="M69.6902 132.095C48.551 110.956 48.5001 76.7334 69.577 55.6566C82.2655 42.9676 104.688 33.2856 125.043 32.1036C102.815 30.7192 75.8643 41.2513 61.459 55.6566C40.3821 76.7334 40.4331 110.956 61.5722 132.095C73.1945 143.718 88.7723 148.963 103.945 147.83C91.4694 146.894 79.2435 141.649 69.6902 132.095Z" fill="black"/>
<path d="M92.1448 59.7642C91.4041 59.7642 90.663 59.4816 90.0973 58.9162C88.9667 57.7856 88.967 55.9522 90.0977 54.8216L91.1453 53.7739C92.2759 52.6437 94.1093 52.6433 95.24 53.7743C96.3706 54.9049 96.3702 56.7383 95.2396 57.8686L94.192 58.9162C93.627 59.4812 92.8859 59.7642 92.1448 59.7642Z" fill="#394049"/>
<path d="M136.799 104.418C136.058 104.418 135.318 104.136 134.752 103.571C133.621 102.44 133.621 100.607 134.752 99.4764L135.799 98.4284C136.93 97.2974 138.763 97.297 139.894 98.428C141.025 99.5586 141.025 101.392 139.894 102.522L138.847 103.57C138.281 104.136 137.54 104.418 136.799 104.418Z" fill="#394049"/>
<path d="M116.588 92.7724C114.488 92.7724 112.39 91.9737 110.791 90.3755C109.401 88.9854 108.572 87.1843 108.417 85.2465C106.547 85.094 104.72 84.3047 103.293 82.877C100.096 79.6806 100.096 74.4799 103.293 71.2839C104.423 70.1529 106.256 70.1532 107.387 71.2835C108.518 72.4141 108.518 74.2475 107.387 75.3778C106.448 76.3165 106.448 77.844 107.387 78.7827C108.326 79.7214 109.853 79.721 110.791 78.7824C111.922 77.6521 113.755 77.6517 114.886 78.7827C115.451 79.3484 115.734 80.0891 115.734 80.8302C115.734 81.5709 115.451 82.312 114.886 82.8774C114.431 83.3319 114.181 83.9363 114.181 84.5789C114.181 85.2219 114.431 85.8263 114.886 86.2808C115.825 87.2199 117.352 87.2195 118.29 86.2808C119.421 85.1506 121.254 85.1502 122.385 86.2812C123.515 87.4118 123.515 89.2452 122.384 90.3758C120.786 91.9733 118.687 92.7724 116.588 92.7724Z" fill="#394049"/>
<path d="M87.0156 71.2835C86.2748 71.2835 85.5338 71.0009 84.9684 70.4359L78.5784 64.0459C77.4478 62.9149 77.4478 61.0819 78.5784 59.9513C79.7091 58.821 81.5425 58.821 82.6727 59.9513L89.0627 66.3412C90.1934 67.4722 90.1934 69.3053 89.0627 70.4359C88.4974 71.0009 87.7563 71.2835 87.0156 71.2835Z" fill="#F0B0B7"/>
<path d="M131.67 115.938C130.929 115.938 130.188 115.655 129.622 115.09L123.232 108.7C122.102 107.569 122.102 105.736 123.232 104.605C124.363 103.475 126.197 103.475 127.327 104.606L133.717 110.996C134.848 112.127 134.848 113.96 133.717 115.091C133.151 115.655 132.41 115.938 131.67 115.938Z" fill="#F0B0B7"/>
<path d="M1.7631 173.754L75.6942 179.987C77.8901 180.172 79.7745 178.439 79.7745 176.236V3.76452C79.7745 1.56092 77.8897 -0.171224 75.6942 0.0136976L1.7631 6.2462C0.907392 6.31827 0.249268 7.03405 0.249268 7.89292V172.106C0.249268 172.966 0.907041 173.682 1.7631 173.754Z" fill="#A27B5A"/>
<path opacity="0.2" d="M63.0218 104.024C66.9268 104.024 70.0924 100.859 70.0924 96.9536C70.0924 93.0486 66.9268 89.8829 63.0218 89.8829C59.1168 89.8829 55.9512 93.0486 55.9512 96.9536C55.9512 100.859 59.1168 104.024 63.0218 104.024Z" fill="black"/>
<path d="M65.6121 100.728C69.5171 100.728 72.6828 97.562 72.6828 93.657C72.6828 89.752 69.5171 86.5863 65.6121 86.5863C61.7071 86.5863 58.5415 89.752 58.5415 93.657C58.5415 97.562 61.7071 100.728 65.6121 100.728Z" fill="#F3C74F"/>
<path opacity="0.4" d="M66.1115 86.6102C64.8163 87.6312 63.9817 89.21 63.9817 90.9872C63.9817 94.0658 66.4774 96.5619 69.5564 96.5619C70.5742 96.5619 71.5259 96.2849 72.3475 95.8082C72.5644 95.1293 72.6832 94.4068 72.6832 93.6562C72.6829 89.9191 69.7825 86.8672 66.1115 86.6102Z" fill="white"/>
<path opacity="0.1" d="M75.6946 0.0137001L43.4978 2.72811C40.1109 7.45768 38.1108 13.2479 38.1108 19.5089C38.1108 35.4494 51.0329 48.3715 66.9734 48.3715C71.5722 48.3715 75.9165 47.2908 79.7749 45.3776V3.76452C79.7749 1.56058 77.8905 -0.171222 75.6946 0.0137001Z" fill="white"/>
</g>
<defs>
<clipPath id="clip0_77_3551">
<rect width="180" height="180" fill="white"/>
</clipPath>
</defs>
</svg>
